# xmcd
#
# Track frame offsets: 
#        150
#        1002
#        22169
#        38835
#        46897
#        80672
#        104410
#        116356
#        140008
#
# Disc length: 2122 seconds
#
# Revision: 0
# Processed by: cddbd v1.5.2PL0 Copyright (c) Steve Scherf et al.
# Submitted via: ExactAudioCopy v0.95b4
#
DISCID=6d084809
DTITLE=The Beatles  - AB  Road - Complete Purple Chick Set v1.1 Jan.26
DTITLE=Various Artist - D5  FLAC
DYEAR=1900
DGENRE=
TTITLE0=The Long And Winding Road rehearsal
TTITLE1=The Long And Winding Road 26.82
TTITLE2=The Long And Winding Road 26.83
TTITLE3=The Long And Winding Road 26.84
TTITLE4=The Long And Winding Road 26.85
TTITLE5=The Long And Winding Road 26.86a
TTITLE6=The Long And Winding Road Cha-Cha 26.86b
TTITLE7=The Long And Winding Road 26.87
TTITLE8=The Long And Winding Road 26.88
EXTD=
EXTT0=
EXTT1=
EXTT2=
EXTT3=
EXTT4=
EXTT5=
EXTT6=
EXTT7=
EXTT8=
PLAYORDER=
